<svg width="445" height="435" viewBox="0 0 445 435" fill="none" xmlns="http://www.w3.org/2000/svg"><g clip-path="url(#clip0)"><path d="M397.6 107a.2.2 0 100-.5.2.2 0 000 .5zM203.8 67.6a.2.2 0 100-.5.2.2 0 000 .5zM413 84a.2.2 0 100-.5.2.2 0 000 .4z" fill="#fff" stroke="#1B1B20" stroke-linecap="round" stroke-linejoin="round"/><path d="M432.4 115.9a2 2 0 00-4-.7 2 2 0 004 .7zM150.3 388.3a2 2 0 00-4-.7 2 2 0 004 .7zm67.6 25.5a2 2 0 00-4-.7 2 2 0 001.6 2.3c1 0 2.2-.6 2.4-1.6zM101 368.4a2 2 0 00-4-.7 2 2 0 001.7 2.3c1 .2 2-.6 2.3-1.6zm234.1 37.2c0-.2 0-.6-.3-.7-.2 0-.6.1-.7.3 0 .2.1.6.3.7.2 0 .6 0 .7-.3zm-49.9 7.7c0-.2 0-.7-.3-.7-.2 0-.6 0-.6.3 0 .2 0 .6.2.6s.7 0 .7-.2zm-56.6-10.6c0-.2 0-.6-.3-.7-.2 0-.6.1-.6.3 0 .2 0 .7.3.7.1 0 .6-.1.6-.3zm122.8-3.8c0-.2 0-.7-.3-.7-.2 0-.6 0-.7.3 0 .2.1.6.3.6.2 0 .7 0 .7-.2zm-221.8-2.6c0-.2 0-.6-.3-.7-.2 0-.6.1-.6.3 0 .2 0 .7.3.7.2 0 .6 0 .6-.3zm70.8 9.4c0-.2 0-.6-.3-.6-.2 0-.6 0-.7.3 0 .2.1.6.3.6.2 0 .7 0 .7-.3zm53-3.8c.2-1.4-.5-2.7-2-3-1.3-.3-2.7.5-3 1.9-.2 1.4.6 2.7 2 3 1.4.2 2.7-.5 3-1.9zM148.7 374c0-.7-.2-1.1-.8-1.3-.6 0-1 .3-1.2.9-.1.5.2 1 .8 1.1.6.1 1-.2 1.2-.8zm1.8 34c0-.6-.2-1-.8-1.1-.6-.2-1.1.2-1.2.8-.1.5.2 1 .8 1.1.6.1 1-.2 1.2-.8zm160.8 3.5c.5-3-1.4-6-4.4-6.5-3-.6-6 1.1-6.5 4.3-.6 3 1.4 6 4.3 6.5 3 .3 6-1.4 6.6-4.3z" fill="#1B1B20"/><path d="M196.6 290.1c23-59.5 99.3 22.1 124.2-78.4 14-56.6 70-45.1 87-7 18.4 41 20.4 103.4-49.6 151-73.8 50.3-182.4-11.8-161.6-65.6z" fill="#F6F6F7"/><path d="M63.2 218.7c-.2 6.6-.8 40-1.1 46.6-1 24.6-.5 53.4 2.2 76 .5 4.5 23 5.8 27.3 6 7 .2 17.5-.4 28.4 0 9.3.3 10-.2 19.3-.2 4.3 0 26 .2 48.4.6M64.4 157.3c0-10.5-1.6-26-2.3-53.7-1.4-4.3 1.6-9 5.4-11a26 26 0 0112.7-1.5c43.8 2.2 87.6-2 131.5-1.9h125.2c2 0 4 0 5.6 1.3 1.9 1.5 2.9 9.3 3 11.8 3.5 39-3.9 78.3-3.6 117.6.2 28.6-.3 59.8-.7 88" stroke="#1B1B20" stroke-width="3" stroke-miterlimit="10" stroke-linecap="round"/><path d="M98.9 223.5c.3 8.4.8 60.5 1 68.9.6 18 .9 35.8.2 53.8M96.7 94c-.7 31.5.2 42.8 1.1 74.3l.3 13m-16.4-74c-2-.6-4.1-1.3-5.9-.3-.7.4-1.3 1-1.7 1.8a7 7 0 001.3 8.7c2.4 2 6.5 2 8.6-.5 1.8-2 2-5 1-7.5a3 3 0 00-.8-1.5c-1.2-.9-3 0-2.5-.7zM77 285s.4 2.4 4.8 3.5c1.3.3 4.1.7 4.7-5 .2-1.9.2-4-1-5.3-.6-.6-1.6-.8-2.7-1a6 6 0 00-3.3.6c-1 .6-2 1.4-2.6 2.4-.9 1.4-1.5 3.3 0 4.9zm0 21.6s.4 2.2 4.8 3.2c1.3.2 4.1.6 4.7-4.7.2-1.7.2-3.7-1-4.9a5 5 0 00-2.7-.9 6.3 6.3 0 00-6 2.8c-.8 1.3-1.4 3 .1 4.5zm0 20.7s.4 2.3 4.8 3.4c1.3.3 4.1.7 4.7-5 .2-1.9.2-4-1-5.3a6.1 6.1 0 00-8.6 2c-.9 1.4-1.5 3.3 0 4.9zm4.8-193.5c-1.6-.4-3.5-.8-4.9.1-.7.5-1.2 1.4-1.5 2.3-.7 2-.4 4.5.8 6.2a5.6 5.6 0 005.7 2.3 4.9 4.9 0 003.7-4.7c-.1-1.7-1-3.1-2-4.5-.7-1-1.5-2-1.8-1.7zm171.5-9.1c.9 6.2 1.2 9 1.2 11.7" stroke="#1B1B20" stroke-width="3" stroke-miterlimit="10" stroke-linecap="round"/><path d="M248.7 128.2c1.2-2 4.9-5.9 4.9-5.9s4.5 4.6 5.6 5.5m-10.5-6.8c1.2-2 4.9-5.9 4.9-5.9s4.5 4.6 5.6 5.4M128.8 117c-3.6.5-7.4 2.5-9.7 8.5-1.4 3.6-1.2 7.7.7 10.7a10.6 10.6 0 009.8 4.8c3.2-.4 6.2-1.8 8.6-3.9a9.6 9.6 0 003-6.2 12.2 12.2 0 00-12.4-13.8v0z" stroke="#1B1B20" stroke-width="3" stroke-miterlimit="10" stroke-linecap="round"/><path d="M138.3 135c-3.6-3-11.6-4.2-18.2.5 4.2 4.2 6.4 4.6 7.7 4.5 7.2 0 8.3-2 10.5-5zm-10.3-8c2.6 2 6-1.5 4-4a3 3 0 00-2-1.1c-2.8-.4-4.3 3.3-2 5z" fill="#FFD000" stroke="#1B1B20" stroke-width="3" stroke-miterlimit="10" stroke-linecap="round"/><path d="M153.7 123l18.6.5c16.5.3 33.1.7 49.5-1.7m-67.2 11.4l15.6.1c2.1 0 4.3 0 6.4-.2 2.6-.3 5.1-1 7.7-.7l2.8.5h13.6" stroke="#1B1B20" stroke-width="3" stroke-miterlimit="10" stroke-linecap="round"/><path d="M109 146.8c33.4 0 69.6-.9 102.6-.9 17.1 0 50.3-1 64.6-2 18.2-1.4 33.1-.5 54-2 .2-10-.4-12.3-.4-24.3 0-1.4-1.3-9.8-2.7-10.8-1.7-1.2-119.1.7-220.3 4.5-3 .1 1.4 23.8 2.2 35.5zm144.3 127.5c.9 6.3 1.2 9 1.2 11.8" stroke="#1B1B20" stroke-width="3" stroke-miterlimit="10" stroke-linecap="round"/><path d="M248.7 277.8c1.2-2 4.9-5.8 4.9-5.8s4.5 4.5 5.6 5.4m-130.4-8.8c-3.6.4-7.4 2.5-9.7 8.5-1.4 3.6-1.2 7.6.7 10.7a10.6 10.6 0 009.8 4.7 16 16 0 008.6-3.8 9.6 9.6 0 003-6.3 12.2 12.2 0 00-12.4-13.8v0z" stroke="#1B1B20" stroke-width="3" stroke-miterlimit="10" stroke-linecap="round"/><path d="M138.3 286.5c-3.6-2.9-11.6-4.1-18.2.6 4.2 4.2 6.4 4.6 7.7 4.5 7.2 0 8.3-2 10.5-5.1zm-10.3-8c2.6 2 6-1.4 4-4a3 3 0 00-2-1c-2.8-.5-4.3 3.2-2 5z" fill="#FFD000" stroke="#1B1B20" stroke-width="3" stroke-miterlimit="10" stroke-linecap="round"/><path d="M153.7 274.6l18.6.4c16.5.4 33.1.8 49.5-1.6m-67.2 11.4h15.6c2.1.1 4.3.1 6.4-.1 2.6-.3 5.1-1 7.7-.7l2.8.4c1 .1 2 .2 3 .1h10.6" stroke="#1B1B20" stroke-width="3" stroke-miterlimit="10" stroke-linecap="round"/><path d="M109 298.3c33.4 0 69.6-.8 102.6-.8 17.1 0 50.3-1 64.6-2 18.2-1.4 33.1-.5 54-2 .2-10-.4-12.3-.4-24.3 0-1.4-1.3-9.9-2.7-10.8-1.7-1.2-119.1.7-220.3 4.5-3 .1 1.4 23.8 2.2 35.4z" stroke="#1B1B20" stroke-width="3" stroke-miterlimit="10" stroke-linecap="round"/><path d="M280.3 274.1c5.2.8 10.6-.9 15.8-.3 1.4.2 2.7.5 4.1.5 2.2.1 4.2-.4 6.3-.7 2.4-.3 5-.3 7.4.2m6.1 115.7a1.7 1.7 0 01-1.7 1.5c-27.9.1-117.2 4.7-117.6-.6-2-26.6-2-47-3.8-70.9a2.6 2.6 0 012.4-2.8c38.3-1.7-4 3.4 93.4-1 8.4-.3 19.5-2.3 26.7 0 1.1.4 2.3 57.1.6 73.8z" stroke="#1B1B20" stroke-width="3" stroke-miterlimit="10" stroke-linecap="round"/><path d="M322.2 315.5c19.2 1.1 31.8.7 46.5 0 4.5-.3 17-1.8 20.5 0s.5 24.6.5 31.3c0 17.2 0 23.1-.5 43.7-18.7-.4-45.5 0-68.6 0" stroke="#1B1B20" stroke-width="3" stroke-miterlimit="10" stroke-linecap="round"/><path d="M328.2 330.7c1-1.8 3-1.7 4.9-2 1.9-.2 1.9.8 5.2.8 3.7 0 11.4-1.2 14.8-.2 2.8.8 5.8.7 8.6-.2M329 340.6c6-1 16.6.6 19.8.2 4.8-.7 9.7 0 14.5.8M328.2 353c2.2-2.5 7.2-1.2 10.4-1.5 5.2-.3 11.4.1 16.7.3l11.2.5M220 326c-4.3.3-9.6 2.8-11.1 7.2a14 14 0 002.6 12.9c1.5 2 3.6 3.8 6 4.7a11 11 0 0010.2-1.7c2.9-2.2 4.7-5.7 5-9.4.3-4.1-.4-8.3-3.6-10.8-3.3-2.6-6.1-3-9.2-2.8z" stroke="#1B1B20" stroke-width="3" stroke-miterlimit="10" stroke-linecap="round"/><path d="M229.5 344.3c-3.4-3.5-5.9-2.6-7.9-2.7a8.5 8.5 0 00-7.5 4.2c-.9 2.2 3.8 4.9 7.8 4.7 6-.2 7.4-3.8 7.6-6.2zm-9.7-13.3c-.6.2-1.2.6-1.6 1-.5.5-.8 1-.9 1.7v1a2.5 2.5 0 001.4 1.5 3.9 3.9 0 003.7 0c1-.7 1.7-2.1 1.2-3.3-.3-.6-.8-1.2-1.5-1.5a3.1 3.1 0 00-2.3-.3v0z" fill="#FFD000" stroke="#1B1B20" stroke-width="3" stroke-miterlimit="10" stroke-linecap="round"/><path d="M242.1 331c24.1-2.5 37.2.8 50.2-2.5m-50.6 11.7c3.5-1 8.3 0 11.9-.7 6.9-1.2 14.6 0 24 0M212 362.4l15.8-1.1c6.7-.5 14.1.6 20.9.7 17.4.4 34.8-1.7 52.1-3.7" stroke="#1B1B20" stroke-width="3" stroke-miterlimit="10" stroke-linecap="round"/><path d="M279.1 368c-.6.1-1.2.4-1.6 1-.4.4-.7 1-.7 1.7 0 3.2.7 6.5 3.4 7.8a9 9 0 004.6.5c7.7-.5 14.6-.5 22.3-1 1.2-.1 4.8 0 5.8-.7 2.5-1.5 1-5.7.8-8.6 0-.9-.2-1.8-.9-2.3-.5-.4-1.3-.4-2-.3-10.5 1-18.3.3-31.7 2z" fill="#FFD000" stroke="#1B1B20" stroke-width="3" stroke-miterlimit="10" stroke-linecap="round"/><path d="M213.2 374.2c9.4 0 10.2-.4 23.5-1 13.4-.8 9.1.4 24.6 0m22-.1c8 .9 15.9-.6 23.7-2.2" stroke="#1B1B20" stroke-width="3" stroke-miterlimit="10" stroke-linecap="round"/><path d="M87 348c-.4 4.9-6.1 16.4-16 17.8-7.3 1.1-15.9 1-21-4.7-3-3.3-4-8-4.4-12.4-.4-5.3-1.2-11.4 2-15.6 1.8-2.5 4-5.1 6.7-6.6 1.3-.8 6.1-2.5 7.6-3l-.5-27.6c-1-1.1-.6.2-1.7 1.5-1.6 1.7-2.1 3.7-3.4 7.2-.5 1.5-1.9 5.2-4.8 7a7 7 0 01-6.6.2l-9.2-4.6c-1.8-.6-2.9 0-4.6 1.4l-7.4 6c-1.4 1.5-1.8 2.7-.8 4.4l4.2 7.3a5 5 0 011.2 5.4c-.4 1.2-1 1.7-1.3 3-.2.6-1.2.7-2.3.9l-10 1.3s-1.5 12-.1 17.8c.6 2.6 9.6 3.4 9.6 3.4h.3c.4 2.6.3 3.7 1.2 6l-7.2 6c.5 4.7 7.3 13.6 10.5 16.2.8.7 3.2 1.4 4.2 1l9.8-5c1.7-.8 7.1 3.6 7.1 3.6s.4 13.7 7.3 13.7c4.5 0 13.6 1.2 16.4-.7.5-.3 2.2-4.8 2.9-8.5a3.5 3.5 0 011.7-2.5 12.3 12.3 0 0112-.4c3.6 1.9 8 3.6 9.6 2.6 4-2.6 10.6-11.9 10.6-11.9.9-.9 1.9-4 1.2-5.1l-5.4-9.4c-.7-.6-.6-4.6 3.5-4.7 4.6-.2 11.7 0 11.8-1.8.1-2.5-.8-7.3-1-9.5L87 348z" fill="#FFD000"/><path d="M49 266.9a.8.8 0 00-.6-.9l-3.4-1h-.3l-.1-.4v-.2l-.2-.5a1.3 1.3 0 01.4-1.3c1-1 3-2.7 2.6-3.1l-4.2-4.3s-2.2 1-3.2 1.7c-.8-.6-1.7-1-2.6-1.4H37c0-1.2.3-3.5-.4-4-.4-.3-3.2-.2-4.4 0-1.2.2-1.7 3.2-2.7 4.5h0l-.7.3a1 1 0 01-1.1-.2c-1.7-1.8-2.4-1.7-2.4-1.7s-5.2 2.7-5.2 3.5l.9 3.2a3 3 0 01-.1 1.8 1.8 1.8 0 01-1.3 1.2l-2.9.6a1.5 1.5 0 00-1 1.3l-.1 3.4a1.4 1.4 0 00.9 1.4l2.4.9a1.5 1.5 0 011.4 1 22 22 0 00.4 1.5v.2l-2 2.9s1.4 2.7 2.9 3.8c.6.5 2.9-1.2 2.9-1.2h0c.6.5 1.3 1 2 1.3l-.5 3.4c1.2 1.2 5.1 1 5.8 1 0 0 0 0 0 0l.2-.1 2-4.3 2.8-.8c.4.5 2.8 3.1 3.8 2.6 1.2-.6 3.4-2.5 3.7-3.5l-1.3-3c.3-.6.8-2.3 1-3.3.8 0 4.5-.3 4.8-1.3.4-1.5.1-5 .1-5zM33.1 273c-1.7.2-3.7.2-4.9-1.1a4 4 0 01-1-2.8 5 5 0 01.8-3.5c.5-.5 1-1 1.7-1.3 1.1-.6 2.5-1 3.8-.7A4.2 4.2 0 0136 266c.5 1 .7 2.2.7 3.3 0 1-1.2 3.4-3.6 3.8v0z" fill="#FFD000" stroke="#1B1B20" stroke-width="3" stroke-miterlimit="10" stroke-linecap="round"/><path d="M329.1 4h-.3c-.1 0-.2 0-.3.2L327 5.7l-.2.2H326.5l-.3-.1a.8.8 0 01-.6-.6c-.3-.8-.8-2.3-1.1-2.2L321 4.2s0 1.5.2 2.2a5.5 5.5 0 00-1.6 1.2c-.6-.2-1.8-1-2.3-.8-.3.2-.9 1.7-1.1 2.5-.2.6 1.3 1.7 1.8 2.6h0v.4a.6.6 0 01-.4.6c-1.4.4-1.6.8-1.6.8s.2 3.6.7 3.8c.6.2 1.3.3 2 .3.4.1.7.3 1 .6l.3.4v.6l-.4 1.7.1.5.4.4 1.9 1h.5c.2 0 .3 0 .5-.2l1.1-1c0-.2.2-.4.4-.4.1-.1.3-.2.5-.1a13.6 13.6 0 001 0v.2l1.1 1.8s2 0 3-.6c.4-.2 0-1.9 0-1.9h0l1.2-.7 1.8 1c1-.3 1.9-2.5 2-2.8 0 0 0 0 0 0v-.1l-1.9-2.3.3-1.7c.4-.1 2.5-.7 2.4-1.4a6 6 0 00-1-3h-2l-1.6-1.4c.2-.4 1-2.5.5-3-.7-.5-2.8-1.3-2.8-1.3zm-.5 10.3c-.3 1-.8 2-1.8 2.4-.6.2-1.3 0-1.9-.2-.7-.3-1.4-.7-1.7-1.3a3 3 0 01-.3-1.3c0-.8 0-1.7.5-2.3a2.5 2.5 0 012-.8 5 5 0 012 .5c.6.3 1.6 1.6 1.2 3h0zM84.4 347.4c-.4 4.8-5.2 14-14.7 15.4-7.1 1.1-15.3 1-20.2-4.5-2.9-3.3-4-7.8-4.3-12.2-.4-5.2.3-10.7 3.4-15 1.8-2.4 4.3-4.2 7-5.7 1.2-.8 4.3-2 5.7-2.5l-.9-29.8c-1.2 0-3 .4-3.3.8a44 44 0 00-4.1 9.4 9 9 0 01-3.9 4.1c-.4.3-2.5 1.5-5.3 0L36 303a4.6 4.6 0 00-5 1.1l-7 7.6a4.5 4.5 0 00-.7 5.3l4 7.2a5 5 0 011.3 5.2l-1.2 3.6a1.7 1.7 0 01-1.4 1.2c-2.4.4-10.2 2.6-10.2 2.6s-1.8 9.4-.5 15.2c.6 2.5 9.3 3.3 9.3 3.3h.3c.3 2.5.9 4.9 1.8 7.2l-7.6 7c.5 5.3 10.2 13 11.8 14.3a.5.5 0 00.6.1l13.1-5.8 8.2 3.8c0 2 .6 13.3 3.7 14 4.2 1.1 13.1 1.2 15.8-.6.6-.4 1.8-6 2.5-9.7.5-.2 6.2-3.7 9.1-5.8 1.9 1.5 11 8.5 13.6 6.8 4-2.5 10.3-11.6 10.3-11.6a2.6 2.6 0 00.3-3.2l-6-9.3a1.5 1.5 0 01-.3-1.8l.3-.5.9-1.6a3.7 3.7 0 013.2-2.1c4.4-.2 12.4-.6 12.2-2.1l-.5-7H84.4zm49.1-168.5c.4-2.6 1.6-12.7 2-14.9l.4-.7c.3-.2.6-.2.9-.2l158.8 11c2.6.2 9 .3 11.2 1.5 5.3 2.7 2.6 8.7 2.1 14.8-1.5 17.4-1.1 52.5-5 55.6-2.4 2-12.6.8-15.7.4-17.7-2.2-89.6-7.5-140-11-8.6-.7-15.5-.2-17.7-6-.3-.7 2.6-33.2 2.6-33.2" stroke="#1B1B20" stroke-width="3" stroke-miterlimit="10" stroke-linecap="round"/><path d="M171.5 170.5c-3.6.1-7.5 2-10.2 7.8a12.2 12.2 0 000 10.7 10.6 10.6 0 009.5 5.4 17 17 0 008.9-3.3 9.6 9.6 0 003.2-6.1 12.2 12.2 0 00-11.4-14.5v0z" stroke="#1B1B20" stroke-width="3" stroke-miterlimit="10" stroke-linecap="round"/><path d="M180 188.9a16.1 16.1 0 00-18.3-.5c4 4.4 6.1 5 7.4 5 7.2.4 8.4-1.6 10.8-4.5zm-9.8-8.2c2.5 2.2 6-1 4.3-3.7a3 3 0 00-1.9-1.2c-2.8-.6-4.6 3-2.4 5z" fill="#06F" stroke="#1B1B20" stroke-width="3" stroke-miterlimit="10" stroke-linecap="round"/><path d="M161 202.4a142 142 0 0027.2 2.5c1.7 0 3.3 0 4.9.3l3.4 1.2c8.1 3.3 17.1 3 25.8 2.9 18.2-.2 36.4.8 54.5 2.9m-118.3 2.4l38.3 3.1a1989 1989 0 0049.1 3.5l10.3.5 24.7 1.1m-122.4 2.4c3.4.9 7 1.1 10.6.7 2.3-.2 4.5-.7 6.8-.6 2.8 0 5.4 1.2 8.2 1.7l5.1.6 12.5 1M139.8 90.2C133 71.5 124 47.5 102 40.5 56 25.8 22.6 66.3 13.2 89.1-1.2 124 19.3 196.9 86.4 208.4c7.2 1.3 9.7.8 20.8 2.7 0-10.2-.3-6.3-1.3-15.7a174 174 0 01-40.6-13.2c-11.6-5.5-33.3-30.8-36.1-56.4-3.4-31.6 24.2-81 68.8-63.7 8 3.1 12.7 8.2 15.9 18.5 1.1 3.6 1.4 6.7 1.4 10.5" stroke="#1B1B20" stroke-width="3" stroke-miterlimit="10" stroke-linecap="round"/><path d="M130 180.4c.6-.4 1.2-.9 2-.8.5 0 1 .5 1.5.9l18.2 16.3c-.7 1.6-1.4 3.2-3.7 6l-11.1-6.4c-1.2-.7-2.5-1.5-3.9-1.6a10 10 0 00-3.8.9c-6 2.2-10.5 3.7-16.4 6a12.3 12.3 0 00-4.6-6.3c1.8-1.2 15.6-10.3 21.8-15z" fill="#fff" stroke="#1B1B20" stroke-width="3" stroke-miterlimit="10" stroke-linecap="round"/><path d="M130.2 213.3c-.8 0-1-.3-2.2-.9l-15.4-8.1c-1.7 2.9-3 4.2-5.4 5.5a566 566 0 0119.6 17.9c.5.5 1 1 1.7 1 .6 0 1.2-.3 1.7-.6" stroke="#1B1B20" stroke-width="3" stroke-miterlimit="10" stroke-linecap="round"/><path d="M102.9 209.3c2.3 1.4 5.6 1.5 7.8-.5 2.3-2 3.3-6.3 2-8.9-2.3-4.7-7.3-10-13-1.2-3 4.7.9 9.1 3.2 10.6z" fill="#fff" stroke="#1B1B20" stroke-width="3" stroke-miterlimit="10" stroke-linecap="round"/><path d="M113.3 74.9c1-1 2.2-2 3.6-2.5 1.4-.6 3-.8 4.5-.8M101 62.7c.5-1.6 1.2-3 2.2-4a9 9 0 013.5-2.6m-22 2.5c.1-1.8.2-3.6.8-5.2a6.2 6.2 0 013.3-3.8M67 60.5a10 10 0 010-10.6M50.5 70.2a12 12 0 01-2.6-4.4 14 14 0 01-.7-5.4m-9.1 25a9.4 9.4 0 01-5.8-8.2M29.8 107a14.9 14.9 0 01-6.6-8.2m5.3 30.8a10 10 0 01-4.7-1.3 10 10 0 01-3.4-3.6M37.7 153c-3.8 1.3-6.9.7-10.6-.5m25.5 21.1a5.3 5.3 0 01-7.3 1.6m27.2 10.9c0 1.4-.3 2.7-.9 3.9-.5 1.1-1.4 2-2.3 2.6m24.7.2c0 2.7-.6 5.3-1.7 7.4M57 81.5a52.8 52.8 0 00-10 60.7M66.4 30.3a29 29 0 00-4.3 1.8M75 28.3c24.5-4.3 42.7 1 59.5 25.4M55.8 209.1c-21-10-31.1-17.2-46.2-46.4" stroke="#1B1B20" stroke-width="3" stroke-linecap="round" stroke-linejoin="round"/><path d="M382 76.7l4.8 2z" fill="#fff"/><path d="M382 76.7l4.8 2" stroke="#1B1B20" stroke-width="3" stroke-miterlimit="10" stroke-linecap="round"/><path d="M382 80.6l3.8-5.8z" fill="#fff"/><path d="M382 80.6l3.8-5.8" stroke="#1B1B20" stroke-width="3" stroke-miterlimit="10" stroke-linecap="round"/><path d="M161.4 63.3l4.8 1.9a5 5 0 00-1.6 1.2c-.5.5-.9 1-1.1 1.7-1-2-2.3-4-2.1-4.8z" fill="#fff" stroke="#1B1B20" stroke-width="3" stroke-linecap="round" stroke-linejoin="round"/><path d="M206.7 37.7a1.6 1.6 0 01-1.1-2c.2-.8 1-1.3 2-1 .7.2 1.3 1 1 1.9-.2.8-1 1.3-1.9 1.1zm36.5 22.1a1.6 1.6 0 01-1.2-2c.3-.8 1-1.4 2-1.1.8.2 1.3 1 1 2-.2.7-1 1.3-1.8 1zm114.1-23a1.6 1.6 0 01-1.1-2c.2-.8 1-1.4 2-1.1.7.2 1.3 1 1 1.9-.2.8-1 1.4-1.9 1.2z" fill="#1B1B20"/><path d="M280.9 54.7a21 21 0 00-6.6 8l7-.3c.3 0 .7 0 1-.3.2-.2.1-.7.1-1a23 23 0 00-1.5-6.4" stroke="#1B1B20" stroke-width="3" stroke-miterlimit="10" stroke-linecap="round" stroke-linejoin="round"/><path d="M344.1 170.7c1-12.9 10-22.3 25-26.9 15-4.6 25.5-2 32.8 7.4 7.3 9.5 7.9 21.8 5.7 33-2.8 14.1-5 22.7-15.5 34.2 3 2.3 6.5 5.4 8.2 7.2 2.5 2.9 28-37.2 25.2-58a55 55 0 00-15.8-32.9 41 41 0 00-34.5-9.9c-11.4 2-28.7 10.3-29.2 20" stroke="#1B1B20" stroke-width="3" stroke-miterlimit="10" stroke-linecap="round"/><path d="M374.8 151.1a19 19 0 0112-.2c8 2 13.4 11.3 14 17.1m32.4 23.5a222.2 222.2 0 01-16.7 33.9m-37.7-92.8c.6 2.6.7 5.3.5 8m-25.5 1.6c.6 2.6.8 5.3.6 8m44.3-4.2c2-2.6 3.3-5.7 3.7-9m6.2 24.8c1.2-.2 2.4-.8 3.5-1.6 1-.8 1.9-1.9 2.6-3m-4.7 24.3c2.2.3 4.5 0 6.6-1.1M405 200.3c1.7 1.2 5.6 1.6 7.6.4" stroke="#1B1B20" stroke-width="3" stroke-miterlimit="10" stroke-linecap="round"/><path d="M355.1 256.6c1-1.4 6.6-.3 7.7 0 38.6 8.8 52 13 80.7 15.4 2 .2 2 5.9 1.7 7.6 0 0-2.3 18.2-3 21.4-1.3 4.8-12 .6-13.8.3A634.7 634.7 0 01350 283a2 2 0 01-1.6-2.3c1-5.3 5.8-22.6 6.7-24z" fill="#FFD000"/><path d="M393 227.5a168 168 0 01-15.2 11.1 55 55 0 001.4 16c-3.4-.2-5-.8-8.4-1.8-1.9-5.7-2.8-13.1-4-19.9 8-5.4 16.2-7.9 23.8-13.7 1.1 2.7 3.2 7.7 2.5 8.3z" stroke="#1B1B20" stroke-width="3" stroke-miterlimit="10" stroke-linecap="round"/><path d="M351 250.8a2 2 0 012.3-1.5c41.2 9 56.5 16.8 85.3 19.2a3 3 0 012.6 1.7c.7 1.3.4 3.1.2 4.8 0 0-.6 18.7-1.4 21.8-1.2 4.8-11.6 0-13.5-.3a860 860 0 01-78.6-17.9 2 2 0 01-1.6-2.2c1-5.3 3.1-15 4.6-25.6z" stroke="#1B1B20" stroke-width="3" stroke-miterlimit="10"/><path d="M414.5 249.2c.3.7.7 1.4.5 2.1-.2.6-.7 1-1.2 1.5l-19.9 15.7c-1.4-1-2.8-2-5.1-5l8.6-10.3c.9-1.1 1.8-2.3 2.2-3.7a10 10 0 000-4.2l-2.7-18.2a12 12 0 007-3.5c.9 2 7.1 18.2 10.6 25.6z" fill="#fff" stroke="#1B1B20" stroke-width="3" stroke-miterlimit="10" stroke-linecap="round"/><path d="M391.9 217.2c-1.7 1.8-2.3 4.7-.8 6.8 1.5 2.2 5.2 3.7 7.7 3 4.6-1.5 10.2-5.1 3.1-11.2-3.8-3.2-8.4-.4-10 1.4z" fill="#fff" stroke="#1B1B20" stroke-width="3" stroke-miterlimit="10" stroke-linecap="round"/><path d="M390.1 275.8c7.2 2.6 5.3 2.4 12.4 3.4 7.2 1 6.9 1.8 15 3.8l15.8 3.8" stroke="#1B1B20" stroke-width="3" stroke-miterlimit="10" stroke-linecap="round"/><path d="M365.5 277.4l2 .8c.2 0 .5-.4 1-.8.6-.4 1.5-3.9 2-5.3.5-1.3.6-2.2-.3-3l-1-1-.4-1.6c-.3-1 .2-2.4.6-4 .4-1.7.7-1.8-1-2.5-1.5-.5-3 3-3.5 4.8l-5.6-1.3c-.8 0-1.2 1.4-2 3-1 1.8 0 6-.2 7.7-.3 1.7 6.2 2.4 8.4 3.2z" fill="#FFD000"/><path d="M368.1 277.4a14 14 0 01-4-.7c-2.6-.8-5.2-1.5-5.4-2.3-.3-.9 0-2.2.6-2l1.1.4m0 0a125.7 125.7 0 010 0zm0 0c-1-.4-2-1-2.1-1.4-.4-1 0-2 .6-2l2 .6m0 0a137.2 137.2 0 010 0zm0 0a7 7 0 01-2.5-1.2c-.6-.8 0-2.4.7-2.4.5 0 2.5.6 3.9 1m0 0a244 244 0 010 0zm0 0c-1.5-.4-3.4-1.2-3.7-1.5-.4-.6.2-2.4 1.7-2.2 2.6.5 3.7 1 5 1.4.5-2 1.8-5.7 3.5-5.6 2 .2 1.6 1 1.5 1.2l-1 3.5c.1 1.3.7 3.4.7 3.8.2.5.3 1 .2 1.1m3 .2c.3.2.8.8.3 2-.6 1.6-1.9 7.1-2.7 7.5-.7.4-2.6-.5-3-.7-.5-.2-.4-1.2-.1-2.4.2-1.2 2.6-7.6 3.2-7.4.5.1 1.8.7 2.3 1z" stroke="#1B1B20" stroke-width="2.5" stroke-linecap="round" stroke-linejoin="round"/><path d="M350.5 75.2a.2.2 0 100-.4.2.2 0 000 .4z" fill="#fff" stroke="#1B1B20" stroke-linecap="round" stroke-linejoin="round"/><path d="M274.6 118l.1 14.5.1.2h.2c4 0 13.1.9 17.2.6 14.5-1.2 16.6-.7 27.4-.6h.4l.4-.2.2-.4v-14.9c-15.8.5-31.5-1.1-46 .8z" fill="#FFD000" stroke="#1B1B20" stroke-width="3" stroke-miterlimit="10" stroke-linecap="round"/><path d="M280.3 124.5c5.2.7 10.6-.9 15.8-.3 1.4.1 2.7.5 4.1.5 2.2 0 4.2-.5 6.3-.8 2.4-.3 5-.2 7.4.3" stroke="#1B1B20" stroke-width="3" stroke-miterlimit="10" stroke-linecap="round"/><path d="M417.6 58l-.1.3.1-.4.2-.3-.2.3z" stroke="#1B1B20" stroke-width="3" stroke-linecap="round" stroke-linejoin="round"/></g><defs><clipPath id="clip0"><path fill="#fff" d="M0 0h445v435H0z"/></clipPath></defs></svg>